Coordinates
version=1
nRows=26
nColumns=32
inDegrees=no

Units are S.I. units (second, meters, Newtons, ...)
If the header above contains a line with 'inDegrees', this indicates whether rotational values are in degrees (yes) or radians (no).

endheader
time	pelvis_tilt	pelvis_list	pelvis_rotation	pelvis_tx	pelvis_ty	pelvis_tz	hip_flexion_r	hip_adduction_r	hip_rotation_r	knee_angle_r	ankle_angle_r	subtalar_angle_r	mtp_angle_r	hip_flexion_l	hip_adduction_l	hip_rotation_l	knee_angle_l	ankle_angle_l	subtalar_angle_l	mtp_angle_l	lumbar_extension	lumbar_bending	lumbar_rotation	arm_flex_r	arm_add_r	arm_rot_r	elbow_flex_r	arm_flex_l	arm_add_l	arm_rot_l	elbow_flex_l
4.775	-0.840422	-0.0617256	0.117971	0.538148	0.715709	1.22981	0.524879	-0.0576537	-0.0305891	1.4186	-0.261384	-0.199184	0.000140391	0.447785	-0.198478	-0.00100023	1.32887	-0.14144	-0.00660999	0.000770899	0.626575	-0.0650911	0.0220954	-0.752349	-1.14598	-1.587	2.0403	-0.504405	-1.44824	-1.62424	2.19422
4.78	-0.84065	-0.061812	0.118054	0.538287	0.715638	1.22981	0.524779	-0.0575792	-0.0305533	1.41831	-0.26139	-0.199166	0.000141047	0.447779	-0.198523	-0.00117496	1.32864	-0.141582	-0.00606845	0.000771385	0.626714	-0.0651298	0.0221986	-0.752519	-1.14579	-1.58698	2.04055	-0.504946	-1.4478	-1.62425	2.19464
4.785	-0.840867	-0.0618969	0.118156	0.538425	0.715569	1.2298	0.524688	-0.0575287	-0.0305322	1.41805	-0.261053	-0.19843	0.000141702	0.447773	-0.198576	-0.00132935	1.32844	-0.141675	-0.00575766	0.00077187	0.626838	-0.0651745	0.0222901	-0.752643	-1.14557	-1.58696	2.04086	-0.50553	-1.44739	-1.62426	2.195
4.79	-0.841076	-0.0619834	0.118275	0.538563	0.7155	1.2298	0.524604	-0.0574964	-0.0305249	1.41778	-0.26049	-0.197216	0.000142356	0.447768	-0.198638	-0.00146914	1.3283	-0.141719	-0.00574589	0.000772356	0.626959	-0.0652227	0.0223653	-0.752712	-1.14534	-1.58694	2.04119	-0.50618	-1.447	-1.62427	2.1953
4.795	-0.841282	-0.0620751	0.118411	0.5387	0.715432	1.2298	0.524524	-0.0574747	-0.0305292	1.41752	-0.259881	-0.195887	0.00014301	0.44777	-0.198708	-0.00160128	1.32819	-0.141721	-0.00606649	0.000772841	0.627079	-0.0652723	0.0224192	-0.752722	-1.14511	-1.58692	2.04155	-0.506902	-1.44663	-1.62429	2.19556
4.8	-0.841486	-0.0621749	0.118564	0.538837	0.715365	1.22979	0.524442	-0.0574559	-0.0305425	1.41723	-0.25943	-0.194862	0.000143663	0.447784	-0.198784	-0.00173375	1.32812	-0.141686	-0.00670101	0.000773326	0.627201	-0.0653218	0.0224474	-0.752673	-1.14488	-1.5869	2.04192	-0.507687	-1.44628	-1.6243	2.19577
4.805	-0.84169	-0.0622849	0.118733	0.538972	0.715298	1.22978	0.524347	-0.0574328	-0.0305612	1.41691	-0.259327	-0.194523	0.000144315	0.447813	-0.198865	-0.00187602	1.32808	-0.141629	-0.007572	0.000773811	0.627319	-0.0653707	0.0224471	-0.752569	-1.14464	-1.58688	2.04229	-0.508514	-1.44595	-1.62431	2.19596
4.81	-0.841894	-0.0624045	0.118918	0.539106	0.715233	1.22977	0.524233	-0.0574017	-0.0305831	1.41655	-0.259676	-0.195083	0.000144967	0.447859	-0.198946	-0.00203808	1.32804	-0.141567	-0.00853871	0.000774296	0.627426	-0.0654195	0.022418	-0.752419	-1.1444	-1.58686	2.04264	-0.509344	-1.44563	-1.62432	2.19611
4.815	-0.842095	-0.0625299	0.119114	0.539236	0.715169	1.22976	0.524097	-0.0573646	-0.0306095	1.41615	-0.260392	-0.19639	0.000145617	0.447918	-0.199022	-0.00222681	1.32799	-0.14152	-0.00940409	0.00077478	0.62751	-0.065471	0.0223626	-0.752237	-1.14414	-1.58683	2.04298	-0.510114	-1.4453	-1.62433	2.19625
4.82	-0.842291	-0.0626555	0.119318	0.539361	0.715108	1.22974	0.523942	-0.0573256	-0.0306425	1.41574	-0.261295	-0.198103	0.000146267	0.447983	-0.199086	-0.00244464	1.32791	-0.141508	-0.00998711	0.000775264	0.627557	-0.065528	0.0222855	-0.752042	-1.14386	-1.58681	2.0433	-0.510745	-1.44498	-1.62434	2.19638
4.825	-0.842481	-0.0627767	0.119523	0.53948	0.71505	1.22973	0.523775	-0.0572866	-0.0306829	1.41532	-0.262179	-0.199825	0.000146916	0.448048	-0.199136	-0.00268698	1.32777	-0.141547	-0.0101694	0.000775748	0.627556	-0.0655911	0.0221923	-0.751855	-1.14355	-1.58679	2.0436	-0.511152	-1.44463	-1.62435	2.19649
4.83	-0.842664	-0.062892	0.119719	0.539591	0.714993	1.22972	0.523606	-0.0572449	-0.0307304	1.41491	-0.262855	-0.201193	0.000147565	0.448106	-0.199174	-0.0029422	1.32757	-0.141635	-0.00991181	0.000776232	0.627501	-0.065656	0.0220889	-0.751702	-1.14322	-1.58677	2.04388	-0.511261	-1.44427	-1.62436	2.1966
4.835	-0.842846	-0.0630016	0.119899	0.539693	0.714939	1.22971	0.523449	-0.0571959	-0.0307844	1.41455	-0.263176	-0.201933	0.000148212	0.448154	-0.199208	-0.00319207	1.32732	-0.141748	-0.00925447	0.000776715	0.627392	-0.0657171	0.0219807	-0.751607	-1.14287	-1.58675	2.04417	-0.511032	-1.44388	-1.62437	2.1967
4.84	-0.843027	-0.0631059	0.120057	0.539787	0.714885	1.22971	0.523313	-0.0571372	-0.0308451	1.41422	-0.263051	-0.201879	0.000148859	0.448186	-0.19924	-0.00341459	1.32704	-0.141848	-0.00831269	0.000777199	0.627238	-0.0657694	0.021872	-0.75159	-1.14251	-1.58672	2.04447	-0.510478	-1.44347	-1.62438	2.1968
4.845	-0.843213	-0.0632041	0.120194	0.539875	0.714831	1.22971	0.523203	-0.0570701	-0.0309129	1.41396	-0.262456	-0.200998	0.000149505	0.448198	-0.199269	-0.00359051	1.32674	-0.141898	-0.00725344	0.000777682	0.627053	-0.0658114	0.0217658	-0.751657	-1.14215	-1.5867	2.04479	-0.509664	-1.44304	-1.62439	2.1969
4.85	-0.843405	-0.0632945	0.120313	0.539958	0.714776	1.22971	0.523118	-0.0569993	-0.0309881	1.41375	-0.26144	-0.199391	0.00015015	0.448188	-0.199289	-0.00371092	1.32644	-0.141877	-0.00625285	0.000778165	0.626854	-0.0658441	0.0216637	-0.751798	-1.1418	-1.58668	2.04512	-0.508698	-1.4426	-1.6244	2.19699
4.855	-0.843605	-0.0633761	0.120418	0.54004	0.714719	1.22971	0.523055	-0.0569291	-0.031068	1.41359	-0.260133	-0.1973	0.000150795	0.448157	-0.199293	-0.00378135	1.32613	-0.141788	-0.0054549	0.000778647	0.626663	-0.0658694	0.0215668	-0.751984	-1.14148	-1.58666	2.04545	-0.507721	-1.44216	-1.6244	2.1971
4.86	-0.843817	-0.0634503	0.120509	0.540125	0.714659	1.22972	0.523008	-0.0568592	-0.0311449	1.41347	-0.25874	-0.195101	0.000151438	0.448108	-0.19928	-0.00382109	1.32583	-0.141655	-0.00494687	0.00077913	0.626504	-0.0658852	0.0214778	-0.752177	-1.1412	-1.58664	2.04576	-0.506888	-1.44173	-1.62441	2.19722
4.865	-0.844043	-0.0635229	0.120579	0.540214	0.714596	1.22972	0.52297	-0.056781	-0.031205	1.41336	-0.257522	-0.193262	0.000152082	0.448046	-0.199255	-0.00385873	1.32552	-0.14151	-0.0047543	0.000779612	0.626397	-0.0658832	0.0214014	-0.752338	-1.14098	-1.58661	2.04602	-0.506335	-1.44133	-1.62442	2.19736
4.87	-0.844285	-0.0636019	0.120617	0.540311	0.71453	1.22972	0.522937	-0.056681	-0.0312305	1.41325	-0.256748	-0.192255	0.000152724	0.447976	-0.19923	-0.00392601	1.32521	-0.141385	-0.00484891	0.000780094	0.626357	-0.0658509	0.0213446	-0.752436	-1.14081	-1.58659	2.04619	-0.506158	-1.44095	-1.62443	2.19754
4.875	-0.844541	-0.0636932	0.120608	0.540417	0.714462	1.22972	0.522904	-0.0565478	-0.031205	1.41312	-0.256596	-0.192384	0.000153365	0.4479	-0.199217	-0.00405127	1.32488	-0.141302	-0.00515491	0.000780576	0.626386	-0.0657775	0.0213162	-0.752457	-1.1407	-1.58657	2.04628	-0.506387	-1.44062	-1.62443	2.19774
4.88	-0.844809	-0.0637978	0.120543	0.54053	0.714391	1.22972	0.522873	-0.0563795	-0.0311227	1.41295	-0.257019	-0.193529	0.000154006	0.447817	-0.199226	-0.00425036	1.32453	-0.141271	-0.00555099	0.000781058	0.626477	-0.0656595	0.0213244	-0.752415	-1.14063	-1.58654	2.04627	-0.506968	-1.44033	-1.62444	2.19796
4.885	-0.845083	-0.063912	0.12042	0.540648	0.714318	1.22972	0.522848	-0.0561821	-0.0309887	1.41277	-0.257807	-0.19527	0.000154646	0.447724	-0.199262	-0.00452298	1.32416	-0.141291	-0.0059078	0.000781539	0.626608	-0.0655027	0.0213731	-0.752347	-1.14059	-1.58652	2.04618	-0.507767	-1.44009	-1.62445	2.1982
4.89	-0.845359	-0.0640281	0.120245	0.540769	0.714245	1.22973	0.52283	-0.0559673	-0.0308149	1.41259	-0.258699	-0.197105	0.000155285	0.447618	-0.199323	-0.0048551	1.32376	-0.141351	-0.00613243	0.00078202	0.62675	-0.0653224	0.0214614	-0.752295	-1.14053	-1.5865	2.04607	-0.508584	-1.4399	-1.62445	2.19841
4.895	-0.845628	-0.0641353	0.120033	0.540888	0.714171	1.22974	0.522821	-0.0557497	-0.0306168	1.4124	-0.259459	-0.198581	0.000155924	0.447496	-0.199406	-0.00522233	1.32335	-0.141446	-0.00619071	0.000782501	0.626866	-0.0651414	0.0215846	-0.752305	-1.14044	-1.58647	2.04596	-0.509197	-1.43976	-1.62446	2.19858
4.9	-0.845884	-0.0642228	0.119805	0.541003	0.714098	1.22976	0.522815	-0.0555445	-0.0304124	1.41222	-0.25991	-0.199377	0.000156561	0.447355	-0.199504	-0.00559331	1.32293	-0.141573	-0.00611256	0.000782982	0.626925	-0.0649853	0.0217346	-0.752399	-1.14028	-1.58645	2.0459	-0.509419	-1.43965	-1.62446	2.19867
